<svg xmlns="http://www.w3.org/2000/svg" viewBox="0 0 420 260" fill="none"><g stroke="#ead4ca" stroke-width="1.5" opacity=".85"><path d="M15 245C84 157 143 100 229 19"/><path d="M64 182C39 164 28 141 22 114M106 143C87 117 82 93 88 66M148 103C135 78 138 53 151 31M191 64C181 43 186 25 202 9"/><path d="M70 177C90 179 111 171 127 157M107 141C128 141 147 132 162 118M149 102C169 102 188 91 203 76M191 64C212 63 230 52 244 34"/><path d="M225 20C275 75 330 128 408 174"/><path d="M279 78C300 67 316 49 324 30M313 112C337 105 356 91 370 72M349 143C373 139 392 128 408 111"/></g></svg>