<svg xmlns="http://www.w3.org/2000/svg" width="1040" height="680" viewBox="0 0 1040 680">
<defs>
<linearGradient id="bg" x1="0" x2="1" y1="0" y2="1"><stop stop-color="#f8fbff"/><stop offset=".55" stop-color="#e8f0ff"/><stop offset="1" stop-color="#dce8ff"/></linearGradient>
<linearGradient id="blue" x1="0" x2="1"><stop stop-color="#2638d6"/><stop offset="1" stop-color="#8b5cff"/></linearGradient>
<filter id="shadow" x="-20%" y="-20%" width="140%" height="150%"><feDropShadow dx="0" dy="24" stdDeviation="26" flood-color="#243a91" flood-opacity=".18"/></filter>
<filter id="glow" x="-60%" y="-60%" width="220%" height="220%"><feGaussianBlur stdDeviation="18" result="b"/><feMerge><feMergeNode in="b"/><feMergeNode in="SourceGraphic"/></feMerge></filter>
</defs>
<rect width="1040" height="680" rx="36" fill="url(#bg)"/>
<g opacity=".32" stroke="#7ea3ff" stroke-width="1.4">
<path d="M84 112h120m-60 0v74m690-28h104m-52 0v90M110 560h180m-90 0v-86M720 534h170m-85 0v-102"/>
<circle cx="144" cy="112" r="5" fill="#fff"/><circle cx="886" cy="158" r="5" fill="#fff"/><circle cx="200" cy="560" r="5" fill="#fff"/><circle cx="805" cy="534" r="5" fill="#fff"/>
</g>
<circle cx="870" cy="120" r="118" fill="#8b5cff" opacity=".13" filter="url(#glow)"/>
<circle cx="178" cy="546" r="132" fill="#30dfff" opacity=".12" filter="url(#glow)"/>
<g filter="url(#shadow)">
<rect x="120" y="112" width="800" height="456" rx="28" fill="rgba(255,255,255,.86)" stroke="#b9c8ff"/>
<rect x="148" y="142" width="190" height="396" rx="20" fill="#07104d"/>
<rect x="176" y="178" width="92" height="18" rx="9" fill="#fff" opacity=".95"/>
<rect x="176" y="228" width="118" height="12" rx="6" fill="#8ea8ff" opacity=".9"/>
<rect x="176" y="260" width="96" height="12" rx="6" fill="#8ea8ff" opacity=".72"/>
<rect x="176" y="292" width="132" height="12" rx="6" fill="#8ea8ff" opacity=".58"/>
<rect x="176" y="360" width="116" height="38" rx="12" fill="url(#blue)"/>
<rect x="176" y="420" width="90" height="12" rx="6" fill="#8ea8ff" opacity=".55"/>
<rect x="176" y="452" width="118" height="12" rx="6" fill="#8ea8ff" opacity=".45"/>
<rect x="376" y="156" width="498" height="64" rx="18" fill="#fff" stroke="#d6e0ff"/>
<rect x="404" y="178" width="122" height="20" rx="10" fill="#07104d" opacity=".9"/>
<rect x="724" y="176" width="116" height="22" rx="11" fill="url(#blue)" opacity=".9"/>
<g>
<rect x="376" y="254" width="142" height="112" rx="18" fill="#fff" stroke="#d6e0ff"/>
<circle cx="420" cy="294" r="22" fill="#eef3ff" stroke="#a9bcff"/>
<text x="448" y="302" font-family="Georgia,serif" font-size="22" fill="#07104d">Lark</text>
<rect x="408" y="330" width="80" height="10" rx="5" fill="#9eb3ff"/>
</g>
<g>
<rect x="548" y="254" width="142" height="112" rx="18" fill="#fff" stroke="#d6e0ff"/>
<circle cx="592" cy="294" r="22" fill="#e8fff0" stroke="#72dc99"/>
<text x="620" y="302" font-family="Georgia,serif" font-size="22" fill="#07104d">LINE</text>
<rect x="580" y="330" width="80" height="10" rx="5" fill="#72dc99"/>
</g>
<g>
<rect x="720" y="254" width="142" height="112" rx="18" fill="#fff" stroke="#d6e0ff"/>
<circle cx="764" cy="294" r="22" fill="#f2ecff" stroke="#9e82ff"/>
<text x="792" y="302" font-family="Georgia,serif" font-size="22" fill="#07104d">AI</text>
<rect x="752" y="330" width="80" height="10" rx="5" fill="#9e82ff"/>
</g>
<path d="M518 310h30M690 310h30" stroke="#839cff" stroke-width="3" stroke-linecap="round"/>
<path d="M538 300l12 10-12 10M710 300l12 10-12 10" fill="none" stroke="#839cff" stroke-width="3" stroke-linecap="round" stroke-linejoin="round"/>
<rect x="376" y="404" width="486" height="96" rx="20" fill="#f7faff" stroke="#d6e0ff"/>
<path d="M418 470c44-56 84-48 118-16s74 36 118-22 84-48 130 8" fill="none" stroke="url(#blue)" stroke-width="8" stroke-linecap="round"/>
<circle cx="418" cy="470" r="8" fill="#2638d6"/><circle cx="536" cy="454" r="8" fill="#2638d6"/><circle cx="654" cy="432" r="8" fill="#8b5cff"/><circle cx="784" cy="440" r="8" fill="#8b5cff"/>
</g>
</svg>