<svg xmlns="http://www.w3.org/2000/svg" viewBox="0 0 64 64">
  <defs>
    <linearGradient id="sfl-blue" x1="11" y1="8" x2="40" y2="55" gradientUnits="userSpaceOnUse">
      <stop offset="0" stop-color="#0c82ff"/>
      <stop offset="1" stop-color="#005fc8"/>
    </linearGradient>
    <linearGradient id="sfl-gold" x1="36" y1="6" x2="55" y2="55" gradientUnits="userSpaceOnUse">
      <stop offset="0" stop-color="#d89a12"/>
      <stop offset="0.52" stop-color="#b8740c"/>
      <stop offset="1" stop-color="#d39a25"/>
    </linearGradient>
  </defs>
  <rect width="64" height="64" rx="14" fill="#ffffff"/>
  <path d="M18 48c-4.8-1.3-7.6-5.1-7.6-10.2 0-7.1 5.2-13.8 11.9-15.2 4.9-1 9.1 1.2 10.8 5.7" fill="none" stroke="url(#sfl-blue)" stroke-width="3.2" stroke-linecap="round"/>
  <path d="M25.6 7.8c-6.2 8.2-5.4 18.2 2.5 29.8 3.8 5.6 3.5 11.7-1.1 18" fill="none" stroke="url(#sfl-blue)" stroke-width="7.2" stroke-linecap="round"/>
  <path d="M38.6 54.5c9.7-11.1 9.9-20.9.5-29.2-6.2-5.6-5.8-12.2 1.1-17.5 4.4-3.3 9.7-2.5 12.1 1.6" fill="none" stroke="url(#sfl-gold)" stroke-width="7.6" stroke-linecap="round"/>
  <path d="M51.5 24.2v17.4M42.8 32.9h17.4" fill="none" stroke="#c88712" stroke-width="2.4" stroke-linecap="round"/>
  <circle cx="13.8" cy="20.2" r="4.4" fill="#0878ee"/>
</svg>
