<svg xmlns="http://www.w3.org/2000/svg" width="1180" height="620" viewBox="0 0 1180 620">
<defs>
<linearGradient id="bg" x1="0" x2="1" y1="0" y2="1"><stop stop-color="#f8fbff"/><stop offset=".56" stop-color="#e5eeff"/><stop offset="1" stop-color="#d4e3ff"/></linearGradient>
<linearGradient id="blue" x1="0" x2="1"><stop stop-color="#2638d6"/><stop offset="1" stop-color="#8b5cff"/></linearGradient>
<linearGradient id="cyan" x1="0" x2="1"><stop stop-color="#27d8ff"/><stop offset="1" stop-color="#6f7dff"/></linearGradient>
<filter id="shadow" x="-20%" y="-20%" width="140%" height="150%"><feDropShadow dx="0" dy="28" stdDeviation="30" flood-color="#1a2f93" flood-opacity=".17"/></filter>
<filter id="glow" x="-80%" y="-80%" width="260%" height="260%"><feGaussianBlur stdDeviation="20" result="b"/><feMerge><feMergeNode in="b"/><feMergeNode in="SourceGraphic"/></feMerge></filter>
</defs>
<rect width="1180" height="620" rx="34" fill="url(#bg)"/>
<g opacity=".42" stroke="#8fb0ff" stroke-width="1.4">
<path d="M86 92h160m-80 0v92M912 84h172m-86 0v136M128 510h220m-110 0v-94M820 518h218m-109 0v-124"/>
<circle cx="166" cy="92" r="5" fill="#fff"/><circle cx="998" cy="84" r="5" fill="#fff"/><circle cx="238" cy="510" r="5" fill="#fff"/><circle cx="929" cy="518" r="5" fill="#fff"/>
<path d="M604 122c86 18 158 64 212 138M566 520c-84-20-148-60-204-126"/>
</g>
<circle cx="932" cy="154" r="124" fill="#8b5cff" opacity=".13" filter="url(#glow)"/>
<circle cx="222" cy="480" r="146" fill="#27d8ff" opacity=".11" filter="url(#glow)"/>
<g filter="url(#shadow)">
<rect x="490" y="118" width="526" height="340" rx="26" fill="rgba(255,255,255,.78)" stroke="#b8c9ff"/>
<rect x="518" y="150" width="174" height="126" rx="18" fill="#fff" stroke="#d5dfff"/>
<rect x="720" y="150" width="266" height="126" rx="18" fill="#fff" stroke="#d5dfff"/>
<rect x="518" y="304" width="468" height="116" rx="18" fill="#fff" stroke="#d5dfff"/>
<rect x="546" y="176" width="74" height="12" rx="6" fill="#2638d6"/>
<rect x="546" y="208" width="118" height="10" rx="5" fill="#9eb3ff"/>
<rect x="546" y="232" width="96" height="10" rx="5" fill="#c1ceff"/>
<path d="M752 238c34-46 68-50 102-17s58 28 88-30" fill="none" stroke="url(#blue)" stroke-width="8" stroke-linecap="round"/>
<rect x="548" y="332" width="102" height="58" rx="14" fill="#eef4ff"/>
<rect x="678" y="332" width="102" height="58" rx="14" fill="#eef4ff"/>
<rect x="808" y="332" width="102" height="58" rx="14" fill="#eef4ff"/>
<path d="M650 361h28M780 361h28" stroke="#8099ff" stroke-width="4" stroke-linecap="round"/>
<path d="M666 350l14 11-14 11M796 350l14 11-14 11" fill="none" stroke="#8099ff" stroke-width="4" stroke-linecap="round" stroke-linejoin="round"/>
<text x="576" y="366" font-family="Georgia,serif" font-size="21" fill="#07104d">School</text>
<text x="700" y="366" font-family="Georgia,serif" font-size="21" fill="#07104d">System</text>
<text x="824" y="366" font-family="Georgia,serif" font-size="21" fill="#07104d">Consult</text>
</g>
<g filter="url(#shadow)">
<rect x="128" y="174" width="238" height="254" rx="26" fill="rgba(255,255,255,.82)" stroke="#b8c9ff"/>
<circle cx="202" cy="254" r="38" fill="#eef4ff" stroke="#adc1ff"/>
<path d="M190 254h24M202 242v24" stroke="#2638d6" stroke-width="6" stroke-linecap="round"/>
<text x="176" y="334" font-family="Georgia,serif" font-size="34" fill="#07104d">Lucia</text>
<text x="176" y="372" font-family="Georgia,serif" font-size="20" fill="#31427f">Salon Owners</text>
<rect x="176" y="392" width="116" height="12" rx="6" fill="url(#cyan)"/>
</g>
<path d="M368 302c64-52 92-58 122-22" fill="none" stroke="url(#blue)" stroke-width="7" stroke-linecap="round"/>
<circle cx="384" cy="291" r="8" fill="#2638d6"/><circle cx="490" cy="280" r="8" fill="#8b5cff"/>
</svg>